<svg xmlns="http://www.w3.org/2000/svg" xmlns:xlink="http://www.w3.org/1999/xlink" width="500" zoomAndPan="magnify" viewBox="0 0 375 374.999991" height="500" preserveAspectRatio="xMidYMid meet" version="1.0"><defs><clipPath id="64dace3d42"><path d="M 68.496094 103.105469 L 329.9375 103.105469 L 329.9375 271.78125 L 68.496094 271.78125 Z M 68.496094 103.105469 " clip-rule="nonzero"/></clipPath></defs><rect x="-37.5" width="450" fill="#ffffff" y="-37.499999" height="449.999989" fill-opacity="1"/><rect x="-37.5" width="450" fill="#ffffff" y="-37.499999" height="449.999989" fill-opacity="1"/><path fill="#38b6ff" d="M 312.164062 193.433594 C 312.164062 193.433594 311.316406 232.3125 260.296875 228.28125 C 238.972656 226.59375 221.351562 218.722656 204.304688 209.464844 C 202.671875 211.042969 201.019531 212.667969 199.347656 214.34375 C 194.03125 219.664062 188.792969 224.691406 183.628906 229.375 C 212.605469 244.074219 238.328125 253.300781 259.019531 252.222656 C 320.941406 249.007812 312.164062 193.433594 312.164062 193.433594 " fill-opacity="1" fill-rule="nonzero"/><path fill="#38b6ff" d="M 159.164062 157.570312 C 159.164062 143.644531 147.878906 132.359375 133.953125 132.359375 C 120.03125 132.359375 108.742188 143.644531 108.742188 157.570312 C 108.742188 163.914062 111.085938 169.707031 114.953125 174.136719 C 108.582031 173.710938 101.882812 173.753906 94.777344 174.375 C 69.519531 176.574219 50.105469 192.675781 47.832031 212.792969 C 44.945312 238.3125 69.226562 252.019531 69.226562 252.019531 C 69.226562 252.019531 47.34375 228.300781 71.933594 209.96875 C 90.199219 196.351562 116.65625 197.277344 158.261719 216.570312 C 165.511719 209.835938 172.261719 202.59375 179.101562 195.328125 C 168.457031 189.492188 157.4375 184.035156 145.3125 180.082031 C 153.53125 175.925781 159.164062 167.40625 159.164062 157.570312 " fill-opacity="1" fill-rule="nonzero"/><path fill="#38b6ff" d="M 204.304688 209.464844 C 202.671875 211.042969 201.019531 212.667969 199.347656 214.34375 C 194.03125 219.664062 188.792969 224.691406 183.628906 229.375 C 190.160156 232.6875 196.523438 235.71875 202.703125 238.417969 C 207.777344 233.804688 212.929688 228.859375 218.148438 223.632812 C 219.835938 221.945312 221.496094 220.3125 223.140625 218.722656 C 216.6875 215.964844 210.457031 212.808594 204.304688 209.464844 " fill-opacity="1" fill-rule="nonzero"/><g clip-path="url(#64dace3d42)"><path fill="#f09c13" d="M 327.027344 169.441406 C 321.335938 156.390625 308.125 147.730469 292.15625 145.597656 C 296.40625 141.085938 299.007812 135.007812 299.007812 128.320312 C 299.007812 114.394531 287.722656 103.109375 273.796875 103.109375 C 259.875 103.109375 248.585938 114.394531 248.585938 128.320312 C 248.585938 137.113281 253.09375 144.855469 259.917969 149.367188 C 196.960938 168.523438 182.449219 225.386719 128.53125 246.769531 C 80.957031 265.636719 68.703125 228.730469 68.703125 228.730469 C 68.703125 228.730469 76.671875 284.421875 136.796875 269.277344 C 158.714844 263.753906 182.753906 244.753906 208.539062 218.941406 C 249.984375 177.453125 278.847656 165.183594 303.164062 173.835938 C 332.0625 184.121094 318.125 213.226562 318.125 213.226562 C 318.125 213.226562 337.296875 192.980469 327.027344 169.441406 " fill-opacity="1" fill-rule="nonzero"/></g></svg>